<svg xmlns="http://www.w3.org/2000/svg" width="44.084" height="55.066" viewBox="0 0 44.084 55.066">
  <g id="Grupo_11172" data-name="Grupo 11172" transform="translate(1.004 1)">
    <g id="shopping-bag_1_" data-name="shopping-bag (1)" transform="translate(0)">
      <g id="Grupo_11169" data-name="Grupo 11169" transform="translate(0)">
        <g id="Grupo_11168" data-name="Grupo 11168" transform="translate(0)">
          <path id="Trazado_31565" data-name="Trazado 31565" d="M95.07,43.76,92.7,13.9A3.732,3.732,0,0,0,89,10.468H84.315v-.21a10.258,10.258,0,1,0-20.515,0v.21H59.12a3.731,3.731,0,0,0-3.7,3.427l-2.371,29.87a8.641,8.641,0,0,0,8.615,9.3H86.455A8.641,8.641,0,0,0,95.07,43.76Zm-28.162-33.5a7.149,7.149,0,1,1,14.3,0v.21h-14.3ZM90.514,48.185a5.475,5.475,0,0,1-4.059,1.773H61.66a5.532,5.532,0,0,1-5.516-5.951l2.37-29.87a.609.609,0,0,1,.6-.56H63.8V17.4a1.554,1.554,0,1,0,3.108,0V13.576h14.3V17.4a1.554,1.554,0,1,0,3.108,0V13.576H89a.611.611,0,0,1,.605.564L91.971,44A5.476,5.476,0,0,1,90.514,48.185Z" transform="translate(-53.02)" fill="#fff" stroke="#fff" stroke-width="2"/>
        </g>
      </g>
      <g id="Grupo_11171" data-name="Grupo 11171" transform="translate(13.581 25.9)">
        <g id="Grupo_11170" data-name="Grupo 11170" transform="translate(0)">
          <path id="Trazado_31566" data-name="Trazado 31566" d="M198.511,250.348a1.554,1.554,0,0,0-2.2,0l-6.94,6.94-2.668-2.668a1.554,1.554,0,1,0-2.2,2.2l3.767,3.767a1.554,1.554,0,0,0,2.2,0l8.038-8.038A1.554,1.554,0,0,0,198.511,250.348Z" transform="translate(-184.052 -249.893)" fill="#fff" stroke="#fff" stroke-width="2"/>
        </g>
      </g>
    </g>
  </g>
</svg>
