
<svg xmlns="http://www.w3.org/2000/svg" viewBox="0 0 67.68 78.56"><g id="Capa_2" data-name="Capa 2"><g id="Capa_1-2" data-name="Capa 1"><path d="M.57,71.79h3a2.45,2.45,0,0,1,1.72.6,2.36,2.36,0,0,1,0,3.22,2.49,2.49,0,0,1-1.79.61H2.29v2.12H.57Zm1.72,3.07h1c.67,0,1-.29,1-.85A.78.78,0,0,0,4,73.39a1,1,0,0,0-.7-.21h-1Z"/><path d="M18.1,75.69v1.2h3.55v1.45H16.38V71.79h5.18v1.43H18.1v1.07h3v1.4Z"/><path d="M37.76,76.52,38,78.34H36.25l-.15-1.52a1.07,1.07,0,0,0-.27-.68.94.94,0,0,0-.68-.21h-1v2.41H32.38V71.79h3.45a2.22,2.22,0,0,1,1.56.51A1.75,1.75,0,0,1,38,73.65a1.56,1.56,0,0,1-1.17,1.6A1.34,1.34,0,0,1,37.76,76.52ZM34.1,74.64h1.24a1,1,0,0,0,.67-.2.71.71,0,0,0,.24-.56.7.7,0,0,0-.21-.54.88.88,0,0,0-.61-.2H34.1Z"/><path d="M51.51,78.56a3.1,3.1,0,0,1-2.08-.64,2.29,2.29,0,0,1-.72-1.82V71.79h1.72v4.32c0,.69.36,1,1.09,1s1.09-.35,1.09-1V71.79h1.72V76.1a2.25,2.25,0,0,1-.73,1.82A3.09,3.09,0,0,1,51.51,78.56ZM52,71.1H50.7l.76-1.49h1.89Z"/><path d="M35.76,0C25.44,0,15.12,0,4.81,0H0V7.2H3.54c10.64,0,21.27.06,31.9,0,7,0,13.13,2.1,18,7,7.09,7.2,8.92,15.93,5.6,25.35C56,48.29,49.51,54.08,40.26,54.81c-10.77.85-21.65.38-32.48.48-.18,0-.36-.18-.7-.34V21.1H35.32a20.57,20.57,0,0,1,3.14.13A10.29,10.29,0,0,1,47,31.17c.25,4.42-2.75,9.28-7.28,9.75-6.18.65-12.48.16-19,.16v-4H13.87V48.68c7.85,0,15.42.06,23,0a17.58,17.58,0,0,0,17.37-17c.32-8.79-6.89-17.29-16-17.62C25.63,13.62,13,14,.1,14V62.58c1.22,0,2.15,0,3.09,0,11.79,0,23.61.47,35.36-.18A30.77,30.77,0,0,0,67.62,33.88C68.74,14.89,54.8.07,35.76,0"/><rect x="13.87" y="26.74" width="6.82" height="5.39"/></g></g></svg>
